<mxfile host="app.diagrams.net" modified="2023-05-02T18:01:30.836Z" agent="Mozilla/5.0 (Windows NT 10.0; Win64; x64) AppleWebKit/537.36 (KHTML, like Gecko) Chrome/112.0.0.0 Safari/537.36" version="21.2.3" etag="pG6br29VOOz4F4nLOE1l" type="github">
  <diagram name="Страница 1" id="2ItUfHXwJ_sICvlW6Zqb">
    <mxGraphModel>
      <root>
        <mxCell id="0" />
        <mxCell id="1" parent="0" />
      </root>
    </mxGraphModel>
  </diagram>
</mxfile>
